<svg xmlns="http://www.w3.org/2000/svg" version="1.1" xmlns:xlink="http://www.w3.org/1999/xlink" xmlns:svgjs="http://svgjs.dev/svgjs" width="1000" height="422" viewBox="0 0 1000 422"><g transform="matrix(1,0,0,1,-0.06672608490936227,-0.5970851063829059)"><svg viewBox="0 0 334 141" data-background-color="#111111" preserveAspectRatio="xMidYMid meet" height="422" width="1000" xmlns="http://www.w3.org/2000/svg" xmlns:xlink="http://www.w3.org/1999/xlink"><g id="tight-bounds" transform="matrix(1,0,0,1,0.02228651235972734,0.19949999999997203)"><svg viewBox="0 0 333.95542697528055 140.60052000000002" height="140.60052000000002" width="333.95542697528055"><g><svg viewBox="0 0 333.95542697528055 140.60052000000002" height="140.60052000000002" width="333.95542697528055"><g><svg viewBox="0 0 333.95542697528055 140.60052000000002" height="140.60052000000002" width="333.95542697528055"><g><path d="M0 140.601v-140.601h333.955v140.601z" fill="#111111" stroke="transparent" stroke-width="0" rx="0%" data-fill-palette-color="tertiary"></path><path d="M3.283 137.317v-134.034h327.389v134.034z" fill="#ffffff" stroke="transparent" stroke-width="0" rx="0%" data-fill-palette-color="quaternary"></path><path d="M9.85 130.751v-120.901h314.256v120.901z" fill="#111111" stroke="transparent" stroke-width="0" data-fill-palette-color="tertiary"></path></g><g transform="matrix(1,0,0,1,19.69974,19.69974)" id="textblocktransform"><svg viewBox="0 0 294.55594697528056 101.20104" height="101.20104" width="294.55594697528056" id="textblock"><g><svg viewBox="0 0 294.55594697528056 101.20104" height="101.20104" width="294.55594697528056"><g transform="matrix(1,0,0,1,0,0)"><svg width="294.55594697528056" viewBox="1.850000023841858 -37.099998474121094 107.98333740234375 37.099998474121094" height="101.20104" data-palette-color="#ffffff"><path d="M2.5 0L2.5 0Q2.15 0 1.95-0.35 1.75-0.7 1.95-1.25L1.95-1.25 14.55-36.2Q14.75-36.7 15-36.9 15.25-37.1 15.75-37.1L15.75-37.1 22-37.1Q23.05-37.1 23.4-36.1L23.4-36.1 35.9-1.2Q36.05-0.8 35.9-0.4 35.75 0 35.35 0L35.35 0 29.3 0Q28.6 0 28.4-0.65L28.4-0.65 25.5-8.75Q25.45-9 25.33-9.13 25.2-9.25 24.9-9.25L24.9-9.25 11.85-9.25Q11.4-9.25 11.25-8.8L11.25-8.8 8.25-0.6Q8.2-0.3 7.98-0.15 7.75 0 7.35 0L7.35 0 2.5 0ZM13.55-14.9L23.1-14.9Q23.75-14.9 23.5-15.7L23.5-15.7 18.7-29.05Q18.55-29.4 18.35-29.4 18.15-29.4 18-29L18-29 13.15-15.7Q12.85-14.9 13.55-14.9L13.55-14.9ZM63.15-16.35L49.75-16.35Q49.15-16.35 49.15-15.8L49.15-15.8 49.15-1Q49.15 0 48 0L48 0 42.7 0Q42.15 0 41.95-0.23 41.75-0.45 41.75-0.9L41.75-0.9 41.75-36.25Q41.75-37.1 42.5-37.1L42.5-37.1 48.45-37.1Q49.15-37.1 49.15-36.3L49.15-36.3 49.15-22.85Q49.15-22.05 49.85-22.05L49.85-22.05 63.05-22.05Q63.75-22.05 63.75-22.8L63.75-22.8 63.75-36.3Q63.75-37.1 64.45-37.1L64.45-37.1 70.4-37.1Q71.15-37.1 71.15-36.25L71.15-36.25 71.15-0.9Q71.15-0.45 70.95-0.23 70.75 0 70.2 0L70.2 0 64.9 0Q63.75 0 63.75-1L63.75-1 63.75-15.8Q63.75-16.35 63.15-16.35L63.15-16.35ZM109.7-1.05L109.7-1.05Q109.9-0.6 109.8-0.3 109.7 0 109.2 0L109.2 0 102.9 0Q101.95 0 101.65-0.65L101.65-0.65 92.55-17.35Q92.2-17.85 91.7-17.2L91.7-17.2 86.8-11.45Q86.45-11.05 86.45-10.45L86.45-10.45 86.45-1Q86.45 0 85.3 0L85.3 0 80.05 0Q79.5 0 79.27-0.23 79.05-0.45 79.05-0.9L79.05-0.9 79.05-36.3Q79.05-37.1 79.75-37.1L79.75-37.1 85.75-37.1Q86.45-37.1 86.45-36.35L86.45-36.35 86.45-20.25Q86.45-19.8 86.6-19.8 86.75-19.8 87-20.05L87-20.05 100.6-36.4Q100.85-36.8 101.15-36.95 101.45-37.1 102.05-37.1L102.05-37.1 107.15-37.1Q107.7-37.1 107.92-36.8 108.15-36.5 107.8-36.1L107.8-36.1 97.5-24.25Q97.15-23.85 97.45-23.25L97.45-23.25 109.7-1.05Z" opacity="1" transform="matrix(1,0,0,1,0,0)" fill="#ffffff" class="wordmark-text-0" data-fill-palette-color="quaternary" id="text-0"></path></svg></g></svg></g></svg></g></svg></g><g></g></svg></g><defs></defs></svg><rect width="333.95542697528055" height="140.60052000000002" fill="none" stroke="none" visibility="hidden"></rect></g></svg></g></svg>