<svg xmlns="http://www.w3.org/2000/svg" version="1.1" xmlns:xlink="http://www.w3.org/1999/xlink" xmlns:svgjs="http://svgjs.dev/svgjs" width="2000" height="516" viewBox="0 0 2000 516"><g transform="matrix(1,0,0,1,0.3398876404492057,-0.5580242780068829)"><svg viewBox="0 0 356 92" data-background-color="#ffffff" preserveAspectRatio="xMidYMid meet" height="516" width="2000" xmlns="http://www.w3.org/2000/svg" xmlns:xlink="http://www.w3.org/1999/xlink"><g id="tight-bounds" transform="matrix(1,0,0,1,-0.06049999999996203,0.09949270072991112)"><svg viewBox="0 0 356.12052 91.80101459854015" height="91.80101459854015" width="356.12052"><g><svg viewBox="0 0 356.12052 91.80101459854015" height="91.80101459854015" width="356.12052"><g><svg viewBox="0 0 356.12052 91.80101459854015" height="91.80101459854015" width="356.12052"><g><path d="M0 91.801v-91.801h356.121v91.801z" fill="#000000" stroke="transparent" stroke-width="0" rx="0%" data-fill-palette-color="tertiary"></path><path d="M3.283 88.518v-85.235h349.554v85.235z" fill="#ffffff" stroke="transparent" stroke-width="0" rx="0%" data-fill-palette-color="quaternary"></path><path d="M9.85 81.951v-72.101h336.421v72.101z" fill="#000000" stroke="transparent" stroke-width="0" data-fill-palette-color="tertiary"></path></g><g transform="matrix(1,0,0,1,19.69974,19.69974)" id="textblocktransform"><svg viewBox="0 0 316.72104 52.40153459854015" height="52.40153459854015" width="316.72104" id="textblock"><g><svg viewBox="0 0 316.72104 52.40153459854015" height="52.40153459854015" width="316.72104"><g transform="matrix(1,0,0,1,0,0)"><svg width="316.72104" viewBox="0.20000000298023224 -33.5 205.49000549316406 34" height="52.40153459854015" data-palette-color="#010536"><path d="M8.85 0L0.2 0 11.8-33 22.1-33 33.65 0 24.8 0 18.35-21.2 16.9-26.4 16.8-26.4 15.45-21.25 8.85 0ZM26.1-7.45L7.75-7.45 7.75-13.3 26.1-13.3 26.1-7.45ZM37.5-33L53.25-33Q59.15-33 62.42-30.23 65.7-27.45 65.7-22.85L65.7-22.85Q65.7-17.8 62.45-15.15 59.2-12.5 53.3-12.5L53.3-12.5 52.5-12.05 45.95-12.05 45.95 0 37.5 0 37.5-33ZM45.95-18.15L52.05-18.15Q54.55-18.15 55.8-19.15 57.05-20.15 57.05-22.35L57.05-22.35Q57.05-24.5 55.8-25.5 54.55-26.5 52.05-26.5L52.05-26.5 45.95-26.5 45.95-18.15ZM49.7-14.45L57.1-16.35 67.65 0 58.15 0 49.7-14.45ZM84.85-33.5L84.85-33.5Q89.45-33.5 92.97-32.08 96.5-30.65 99.1-27.9L99.1-27.9 94.95-22.35Q92.8-24.6 90.32-25.73 87.85-26.85 84.7-26.85L84.7-26.85Q82.85-26.85 81.7-26.45 80.55-26.05 80.05-25.35 79.55-24.65 79.55-23.75L79.55-23.75Q79.55-22.7 80.52-21.98 81.5-21.25 83.7-20.75L83.7-20.75 89.25-19.5Q94.2-18.35 96.5-16.15 98.8-13.95 98.8-10.3L98.8-10.3Q98.8-6.8 97-4.38 95.2-1.95 92.05-0.73 88.9 0.5 84.85 0.5L84.85 0.5Q81.55 0.5 78.55-0.23 75.55-0.95 73.15-2.3 70.75-3.65 69.1-5.4L69.1-5.4 73.25-11.15Q74.5-9.7 76.32-8.58 78.15-7.45 80.32-6.8 82.5-6.15 84.75-6.15L84.75-6.15Q86.5-6.15 87.67-6.5 88.85-6.85 89.4-7.55 89.95-8.25 89.95-9.2L89.95-9.2Q89.95-10.25 89.2-10.98 88.45-11.7 86.35-12.2L86.35-12.2 80.25-13.55Q77.45-14.2 75.27-15.28 73.1-16.35 71.85-18.18 70.6-20 70.6-22.75L70.6-22.75Q70.6-25.85 72.3-28.28 74-30.7 77.2-32.1 80.4-33.5 84.85-33.5ZM125.39-33L133.99-33 133.99 0 125.39 0 125.39-33ZM104.19-33L112.79-33 112.79 0 104.19 0 104.19-33ZM108.39-19.95L129.99-19.95 129.99-13.3 108.39-13.3 108.39-19.95ZM146.49 0L137.84 0 149.44-33 159.74-33 171.29 0 162.44 0 155.99-21.2 154.54-26.4 154.44-26.4 153.09-21.25 146.49 0ZM163.74-7.45L145.39-7.45 145.39-13.3 163.74-13.3 163.74-7.45ZM195.54-33L205.09-33 189.59-14.45 189.04-15.75 181.19-6.2 179.54-13.15 195.54-33ZM175.14-33L183.74-33 183.74 0 175.14 0 175.14-33ZM185.94-17.3L192.39-22.1 205.69 0 195.94 0 185.94-17.3Z" opacity="1" transform="matrix(1,0,0,1,0,0)" fill="#ffffff" class="wordmark-text-0" data-fill-palette-color="quaternary" id="text-0"></path></svg></g></svg></g></svg></g></svg></g></svg></g><defs></defs></svg><rect width="356.12052" height="91.80101459854015" fill="none" stroke="none" visibility="hidden"></rect></g></svg></g></svg>